<?xml version="1.0" encoding="UTF-8"?>
<svg width="309px" height="221px" viewBox="0 0 309 221" version="1.1" xmlns="http://www.w3.org/2000/svg" xmlns:xlink="http://www.w3.org/1999/xlink">
    <!-- Generator: Sketch 55.2 (78181) - https://sketchapp.com -->
    <title>swiftBA</title>
    <desc>Created with Sketch.</desc>
    <defs>
        <polygon id="path-1" points="0 62 308.197 62 308.197 0 0 0"></polygon>
        <path d="M95.2840164,0 C110.514468,20.7485028 117.474824,45.8237781 111.38364,67.8696194 L111.38364,67.8696194 C110.819476,69.9463513 110.150651,71.9488081 109.388132,73.8759995 L109.388132,73.8759995 C108.664486,73.3897451 107.764414,72.8460514 106.599205,72.1924305 L106.599205,72.1924305 C106.599205,72.1924305 71.3548642,50.5773847 33.5000158,12.5366473 L33.5000158,12.5366473 C32.6308434,11.6730754 53.9534754,42.7953345 77.8796374,67.8696194 L77.8796374,67.8696194 C66.5694324,61.3829269 34.8057678,38.4735137 14.7918782,20.3167169 L14.7918782,20.3167169 C17.4023855,24.207742 20.0128929,28.5315434 23.4955629,31.9897923 L23.4955629,31.9897923 C40.028776,53.1700811 62.2175901,79.1069475 88.3236603,98.9928688 L88.3236603,98.9928688 C88.3316343,99.0047528 88.3396084,99.0116851 88.3505727,99.0235692 L88.3505727,99.0235692 C69.9992742,110.308433 43.92211,111.140315 17.8379685,98.9928688 L17.8379685,98.9928688 C11.3121985,95.9693769 5.22101469,92.5091473 0,88.1873266 L0,88.1873266 C10.8766156,105.47659 27.8454117,120.607914 48.2948842,129.252546 L48.2948842,129.252546 C73.552714,140.007581 98.6560463,138.931088 116.914646,128.452356 L116.914646,128.452356 C125.799741,124.728697 143.275886,119.11647 152.715178,137.470344 L152.715178,137.470344 C154.891099,141.792165 159.674537,118.882751 142.274145,97.2677057 L142.274145,97.2677057 C142.172476,97.1389622 142.070807,97.0151703 141.968141,96.8943495 L141.968141,96.8943495 C142.235272,96.0238453 142.481471,95.1365054 142.707735,94.2392621 L142.707735,94.2392621 C151.412416,60.9521313 130.525367,21.1812791 95.2840164,0 Z" id="path-3"></path>
        <linearGradient x1="49.9998748%" y1="0.000127021193%" x2="49.9998748%" y2="99.9999458%" id="linearGradient-5">
            <stop stop-color="#F48738" offset="0%"></stop>
            <stop stop-color="#ED2D2A" offset="100%"></stop>
        </linearGradient>
    </defs>
    <g id="Page-1" stroke="none" stroke-width="1" fill="none" fill-rule="evenodd">
        <g id="swiftBA">
            <g id="SwiftBA_Logo" transform="translate(0.000000, 158.000000)">
                <g id="SwiftBA" transform="translate(0.000000, 0.350000)">
                    <path d="M11.9751,44.0562 C12.5511,48.9532 17.6541,52.1632 24.2391,52.1632 C30.8651,52.1632 35.3911,48.9942 35.3911,44.6322 C35.3911,40.7642 32.5521,38.6242 25.3911,37.0192 L17.6541,35.3312 C6.7071,32.9862 1.3171,27.4302 1.3171,18.7472 C1.3171,7.8002 10.7821,0.5582 24.0331,0.5582 C37.8601,0.5582 46.5441,7.6772 46.7491,18.4182 L35.1031,18.4182 C34.6921,13.3972 30.2881,10.3522 24.0741,10.3522 C17.9421,10.3522 13.8271,13.2742 13.8271,17.6772 C13.8271,21.3402 16.7081,23.3982 23.5391,24.9612 L30.7411,26.4842 C42.6341,29.0352 47.8191,34.1382 47.8191,43.1922 C47.8191,54.7152 38.4781,61.9992 23.7451,61.9992 C9.4651,61.9992 0.3701,55.2082 0.0001,44.0562 L11.9751,44.0562 Z" id="Fill-4" fill="#F58A33"></path>
                    <polygon id="Fill-6" fill="#F58A33" points="104.6113 60.9703 91.8123 60.9703 83.8293 29.7763 83.5823 29.7763 75.6393 60.9703 63.0053 60.9703 51.2773 16.8543 63.3763 16.8543 70.0433 49.5713 70.2893 49.5713 78.1093 16.8543 89.6313 16.8543 97.4913 49.5713 97.7383 49.5713 104.4463 16.8543 116.2993 16.8543"></polygon>
                    <mask id="mask-2" fill="white">
                        <use xlink:href="#path-1"></use>
                    </mask>
                    <g id="Clip-9"></g>
                    <path d="M121.196,60.97 L133.212,60.97 L133.212,16.854 L121.196,16.854 L121.196,60.97 Z M120.785,5.784 C120.785,2.286 123.583,-0.43 127.205,-0.43 C130.826,-0.43 133.625,2.286 133.625,5.784 C133.625,9.241 130.826,11.999 127.205,11.999 C123.583,11.999 120.785,9.241 120.785,5.784 L120.785,5.784 Z" id="Fill-8" fill="#F58A33" mask="url(#mask-2)"></path>
                    <path d="M144.4077,25.9078 L138.3987,25.9078 L138.3987,17.0598 L144.4077,17.0598 L144.4077,13.7268 C144.4077,5.0848 148.4807,1.0518 158.9337,1.0518 C161.1557,1.0518 163.6667,1.2988 165.0657,1.5868 L165.0657,9.5288 C164.2017,9.3648 163.0087,9.2818 161.8147,9.2818 C157.8647,9.2818 156.1367,11.0108 156.1367,14.1378 L156.1367,17.0598 L164.9017,17.0598 L164.9017,25.9078 L156.4237,25.9078 L156.4237,60.9708 L144.4077,60.9708 L144.4077,25.9078 Z" id="Fill-10" fill="#F58A33" mask="url(#mask-2)"></path>
                    <path d="M186.4243,6.69 L186.4243,16.854 L194.5723,16.854 L194.5723,25.908 L186.4243,25.908 L186.4243,47.019 C186.4243,50.394 188.0703,51.999 191.6103,51.999 C192.6793,51.999 193.7903,51.917 194.5313,51.794 L194.5313,60.641 C193.2963,60.929 191.2383,61.135 188.8113,61.135 C178.4413,61.135 174.4073,57.678 174.4073,49.077 L174.4073,25.908 L168.1933,25.908 L168.1933,16.854 L174.4073,16.854 L174.4073,6.69 L186.4243,6.69 Z" id="Fill-11" fill="#F58A33" mask="url(#mask-2)"></path>
                    <path d="M225.314,51.7105 C232.474,51.7105 236.343,48.6655 236.343,42.9865 C236.343,37.4315 232.351,34.4675 225.026,34.4675 L214.614,34.4675 L214.614,51.7105 L225.314,51.7105 Z M214.614,26.2775 L223.544,26.2775 C230.169,26.2775 233.956,23.3565 233.956,18.3355 C233.956,13.5625 230.623,10.8465 224.82,10.8465 L214.614,10.8465 L214.614,26.2775 Z M202.186,60.9705 L202.186,1.5865 L228.03,1.5865 C239.182,1.5865 246.178,7.3075 246.178,16.4015 C246.178,22.9035 241.323,28.3355 235.026,29.2825 L235.026,29.6115 C243.092,30.2295 249.018,36.1135 249.018,43.9745 C249.018,54.4275 241.158,60.9705 228.483,60.9705 L202.186,60.9705 Z" id="Fill-12" fill="#EC1C24" mask="url(#mask-2)"></path>
                    <path d="M272.27,37.2662 L287.785,37.2662 L280.171,12.9452 L279.883,12.9452 L272.27,37.2662 Z M290.459,46.5672 L269.595,46.5672 L265.069,60.9702 L252.311,60.9702 L272.928,1.5862 L287.538,1.5862 L308.197,60.9702 L294.987,60.9702 L290.459,46.5672 Z" id="Fill-13" fill="#EC1C24" mask="url(#mask-2)"></path>
                </g>
            </g>
            <g id="Swift" transform="translate(154.000000, 0.000000)">
                <mask id="mask-4" fill="white">
                    <use xlink:href="#path-3"></use>
                </mask>
                <g id="Clip-2"></g>
                <path d="M95.2840164,0 C110.514468,20.7485028 117.474824,45.8237781 111.38364,67.8696194 L111.38364,67.8696194 C110.819476,69.9463513 110.150651,71.9488081 109.388132,73.8759995 L109.388132,73.8759995 C108.664486,73.3897451 107.764414,72.8460514 106.599205,72.1924305 L106.599205,72.1924305 C106.599205,72.1924305 71.3548642,50.5773847 33.5000158,12.5366473 L33.5000158,12.5366473 C32.6308434,11.6730754 53.9534754,42.7953345 77.8796374,67.8696194 L77.8796374,67.8696194 C66.5694324,61.3829269 34.8057678,38.4735137 14.7918782,20.3167169 L14.7918782,20.3167169 C17.4023855,24.207742 20.0128929,28.5315434 23.4955629,31.9897923 L23.4955629,31.9897923 C40.028776,53.1700811 62.2175901,79.1069475 88.3236603,98.9928688 L88.3236603,98.9928688 C88.3316343,99.0047528 88.3396084,99.0116851 88.3505727,99.0235692 L88.3505727,99.0235692 C69.9992742,110.308433 43.92211,111.140315 17.8379685,98.9928688 L17.8379685,98.9928688 C11.3121985,95.9693769 5.22101469,92.5091473 0,88.1873266 L0,88.1873266 C10.8766156,105.47659 27.8454117,120.607914 48.2948842,129.252546 L48.2948842,129.252546 C73.552714,140.007581 98.6560463,138.931088 116.914646,128.452356 L116.914646,128.452356 C125.799741,124.728697 143.275886,119.11647 152.715178,137.470344 L152.715178,137.470344 C154.891099,141.792165 159.674537,118.882751 142.274145,97.2677057 L142.274145,97.2677057 C142.172476,97.1389622 142.070807,97.0151703 141.968141,96.8943495 L141.968141,96.8943495 C142.235272,96.0238453 142.481471,95.1365054 142.707735,94.2392621 L142.707735,94.2392621 C151.412416,60.9521313 130.525367,21.1812791 95.2840164,0 Z" id="Fill-1" fill="url(#linearGradient-5)" mask="url(#mask-4)"></path>
            </g>
        </g>
    </g>
</svg>